<mxfile host="Electron" modified="2023-10-02T12:41:17.084Z" agent="Mozilla/5.0 (Macintosh; Intel Mac OS X 10_15_7) AppleWebKit/537.36 (KHTML, like Gecko) draw.io/22.0.0 Chrome/114.0.5735.289 Electron/25.8.3 Safari/537.36" etag="5u3jMXSJyy-piqBAjy9s" version="22.0.0" type="device">
  <diagram name="페이지-1" id="RBQC-IHtuMhvoRAt8Rxi">
    <mxGraphModel dx="1114" dy="894" grid="1" gridSize="10" guides="1" tooltips="1" connect="1" arrows="1" fold="1" page="1" pageScale="1" pageWidth="827" pageHeight="1169" math="0" shadow="0">
      <root>
        <mxCell id="0" />
        <mxCell id="1" parent="0" />
        <mxCell id="-b7T06Klw4yDyQrPdO7b-1" value="&lt;b&gt;클래스&lt;/b&gt;" style="rounded=1;whiteSpace=wrap;html=1;" vertex="1" parent="1">
          <mxGeometry x="80" y="80" width="90" height="340" as="geometry" />
        </mxCell>
        <mxCell id="-b7T06Klw4yDyQrPdO7b-2" value="&lt;b&gt;JPA/Hibernate 구성&lt;/b&gt;" style="rounded=1;whiteSpace=wrap;html=1;verticalAlign=top;" vertex="1" parent="1">
          <mxGeometry x="240" y="80" width="410" height="170" as="geometry" />
        </mxCell>
        <mxCell id="-b7T06Klw4yDyQrPdO7b-3" value="Entity&lt;br&gt;Manager&lt;br&gt;클래스" style="rounded=1;whiteSpace=wrap;html=1;fillColor=#f8cecc;strokeColor=#b85450;" vertex="1" parent="1">
          <mxGeometry x="260" y="150" width="100" height="80" as="geometry" />
        </mxCell>
        <mxCell id="-b7T06Klw4yDyQrPdO7b-4" value="&lt;b&gt;Spring Data JPA 구성&lt;/b&gt;" style="rounded=1;whiteSpace=wrap;html=1;verticalAlign=bottom;" vertex="1" parent="1">
          <mxGeometry x="240" y="260" width="410" height="170" as="geometry" />
        </mxCell>
        <mxCell id="-b7T06Klw4yDyQrPdO7b-5" value="Repository&lt;br&gt;클래스" style="rounded=1;whiteSpace=wrap;html=1;fillColor=#f8cecc;strokeColor=#b85450;" vertex="1" parent="1">
          <mxGeometry x="260" y="280" width="100" height="80" as="geometry" />
        </mxCell>
        <mxCell id="-b7T06Klw4yDyQrPdO7b-6" value="Spring Data&lt;br&gt;JPA" style="rounded=1;whiteSpace=wrap;html=1;fillColor=#f8cecc;strokeColor=#b85450;" vertex="1" parent="1">
          <mxGeometry x="370" y="280" width="100" height="80" as="geometry" />
        </mxCell>
        <mxCell id="-b7T06Klw4yDyQrPdO7b-7" value="&lt;b&gt;JPA/&lt;br&gt;Hibernate&lt;br&gt;&lt;/b&gt;" style="rounded=1;whiteSpace=wrap;html=1;fillColor=#dae8fc;strokeColor=#6c8ebf;" vertex="1" parent="1">
          <mxGeometry x="480" y="110" width="70" height="280" as="geometry" />
        </mxCell>
        <mxCell id="-b7T06Klw4yDyQrPdO7b-8" value="&lt;b&gt;JDBC&lt;br&gt;&lt;/b&gt;" style="rounded=1;whiteSpace=wrap;html=1;fillColor=#dae8fc;strokeColor=#6c8ebf;" vertex="1" parent="1">
          <mxGeometry x="560" y="110" width="70" height="280" as="geometry" />
        </mxCell>
        <mxCell id="-b7T06Klw4yDyQrPdO7b-12" style="edgeStyle=orthogonalEdgeStyle;rounded=0;orthogonalLoop=1;jettySize=auto;html=1;exitX=0;exitY=0.25;exitDx=0;exitDy=0;endArrow=block;endFill=1;" edge="1" parent="1" source="-b7T06Klw4yDyQrPdO7b-9" target="-b7T06Klw4yDyQrPdO7b-8">
          <mxGeometry relative="1" as="geometry">
            <Array as="points">
              <mxPoint x="640" y="223" />
              <mxPoint x="640" y="223" />
            </Array>
          </mxGeometry>
        </mxCell>
        <mxCell id="-b7T06Klw4yDyQrPdO7b-9" value="&lt;b&gt;MySQL&lt;/b&gt;" style="rounded=1;whiteSpace=wrap;html=1;" vertex="1" parent="1">
          <mxGeometry x="680" y="195" width="90" height="110" as="geometry" />
        </mxCell>
        <mxCell id="-b7T06Klw4yDyQrPdO7b-10" style="edgeStyle=orthogonalEdgeStyle;rounded=0;orthogonalLoop=1;jettySize=auto;html=1;entryX=1.044;entryY=0.321;entryDx=0;entryDy=0;entryPerimeter=0;endArrow=block;endFill=1;startArrow=block;startFill=1;" edge="1" parent="1" source="-b7T06Klw4yDyQrPdO7b-3" target="-b7T06Klw4yDyQrPdO7b-1">
          <mxGeometry relative="1" as="geometry" />
        </mxCell>
        <mxCell id="-b7T06Klw4yDyQrPdO7b-11" style="edgeStyle=orthogonalEdgeStyle;rounded=0;orthogonalLoop=1;jettySize=auto;html=1;entryX=1.033;entryY=0.706;entryDx=0;entryDy=0;entryPerimeter=0;endArrow=block;endFill=1;startArrow=block;startFill=1;" edge="1" parent="1" source="-b7T06Klw4yDyQrPdO7b-5" target="-b7T06Klw4yDyQrPdO7b-1">
          <mxGeometry relative="1" as="geometry" />
        </mxCell>
        <mxCell id="-b7T06Klw4yDyQrPdO7b-13" style="edgeStyle=orthogonalEdgeStyle;rounded=0;orthogonalLoop=1;jettySize=auto;html=1;exitX=0;exitY=0.25;exitDx=0;exitDy=0;startArrow=block;startFill=1;endArrow=none;endFill=0;" edge="1" parent="1">
          <mxGeometry relative="1" as="geometry">
            <mxPoint x="680" y="280" as="sourcePoint" />
            <mxPoint x="630" y="280" as="targetPoint" />
            <Array as="points">
              <mxPoint x="640" y="280" />
              <mxPoint x="640" y="280" />
            </Array>
          </mxGeometry>
        </mxCell>
      </root>
    </mxGraphModel>
  </diagram>
</mxfile>
